#!OML:ASF G:\JayActor3\Patient Classification 1\Patient 1\Session 5\male.ASF
:FULLY-SPECIFIED
:DEGREES
592
root 2.23327 17.9401 -4.96444 -11.6696 87.31 -11.1556
lowerback 5.93853 -1.26971 -0.474301
upperback 0.64536 -1.73882 -1.21902
thorax -2.68726 -0.858778 -0.846884
lowerneck -6.21516 1.15006 1.78946
upperneck 12.1871 1.24417 1.70615
head 4.67625 0.835525 0.308719
rclavicle -3.19795e-014 -1.15295e-014
rhumerus -37.3229 -2.62368 -88.4926
rradius 31.5371
rwrist -1.92334
rhand -21.6334 -34.2667
rfingers 7.12502
rthumb 4.76277 -64.1931
lclavicle -3.19795e-014 -1.15295e-014
lhumerus -35.0688 19.2982 73.4525
lradius 14.2056
lwrist 4.4553
lhand -18.1978 11.7452
lfingers 7.12502
lthumb 8.0794 41.5708
rfemur -27.4041 1.86268 20.253
rtibia 36.5314
rfoot 1.67459 -8.59069
rtoes 0.185932
lfemur 10.8181 11.7461 -21.1975
ltibia 10.0805
lfoot 10.4775 -4.35399
ltoes -33.0229
593
root 2.1271 17.9468 -4.97315 -12.1083 87.2492 -11.6034
lowerback 5.93045 -1.25942 -0.396825
upperback 0.625107 -1.72073 -1.2202
thorax -2.70572 -0.850826 -0.892926
lowerneck -6.22003 1.15958 1.78375
upperneck 12.2649 1.26225 1.66921
head 4.70114 0.843354 0.299827
rclavicle 6.41081e-015 6.36111e-015
rhumerus -37.4051 -2.62667 -88.4983
rradius 31.4964
rwrist -1.8789
rhand -21.5486 -34.2699
rfingers 7.12502
rthumb 4.84461 -64.1945
lclavicle 6.41081e-015 6.36111e-015
lhumerus -35.3473 19.6621 73.0746
lradius 14.0034
lwrist 4.06654
lhand -18.1831 11.7827
lfingers 7.12502
lthumb 8.09366 41.6078
rfemur -27.4477 1.83045 20.2955
rtibia 37.9735
rfoot 1.54953 -8.54264
rtoes -0.757029
lfemur 9.79643 11.7375 -21.3038
ltibia 11.2204
lfoot 10.099 -4.067
ltoes -33.0102
594
root 2.02216 17.9524 -4.98001 -12.1082 87.2081 -11.6152
lowerback 5.91527 -1.25394 -0.363668
upperback 0.600098 -1.7119 -1.2213
thorax -2.72389 -0.847022 -0.913381
lowerneck -6.20883 1.17122 1.77802
upperneck 12.3212 1.28405 1.63007
head 4.71673 0.85245 0.290234
rclavicle -1.60022e-014 7.15625e-015
rhumerus -37.4909 -2.61004 -88.5055
rradius 31.4717
rwrist -1.86388
rhand -21.5022 -34.293
rfingers 7.12502
rthumb 4.88944 -64.2166
lclavicle -1.60022e-014 7.15625e-015
lhumerus -35.6344 19.9975 72.7096
lradius 13.8102
lwrist 3.71896
lhand -18.1708 11.7965
lfingers 7.12502
lthumb 8.10552 41.6211
rfemur -27.4736 1.8383 20.3057
rtibia 39.4812
rfoot 1.49458 -8.48008
rtoes -1.90363
lfemur 8.80838 11.7388 -21.4232
ltibia 12.2922
lfoot 9.76159 -3.81286
ltoes -33.0162
595
root 1.9186 17.9557 -4.98553 -11.8938 87.1849 -11.4086
lowerback 5.89032 -1.25185 -0.354282
upperback 0.576064 -1.70903 -1.2237
thorax -2.73501 -0.845907 -0.921596
lowerneck -6.18343 1.18231 1.77558
upperneck 12.3588 1.30553 1.58854
head 4.72422 0.86105 0.279138
rclavicle -8.67198e-015 7.15625e-015
rhumerus -37.5769 -2.58742 -88.5122
rradius 31.461
rwrist -1.87019
rhand -21.4921 -34.3279
rfingers 7.12502
rthumb 4.89921 -64.2513
lclavicle -8.67198e-015 7.15625e-015
lhumerus -35.9183 20.306 72.3563
lradius 13.6201
lwrist 3.40642
lhand -18.1796 11.8285
lfingers 7.12502
lthumb 8.09697 41.6533
rfemur -27.4561 1.86146 20.2973
rtibia 41.0339
rfoot 1.45964 -8.38535
rtoes -2.99066
lfemur 7.84971 11.7551 -21.5433
ltibia 13.3236
lfoot 9.44509 -3.59616
ltoes -33.0254
596
root 1.81685 17.9567 -4.99027 -11.6323 87.177 -11.1434
lowerback 5.85396 -1.25289 -0.35135
upperback 0.560546 -1.71044 -1.22811
thorax -2.7309 -0.846822 -0.928273
lowerneck -6.16043 1.19131 1.77238
upperneck 12.3892 1.32394 1.54908
head 4.72991 0.86809 0.268592
rclavicle 1.72197e-014 -7.95139e-016
rhumerus -37.65 -2.56205 -88.5184
rradius 31.4574
rwrist -1.89379
rhand -21.4912 -34.3915
rfingers 7.12502
rthumb 4.90008 -64.3149
lclavicle 1.72197e-014 -7.95139e-016
lhumerus -36.1914 20.6304 71.9915
lradius 13.4244
lwrist 3.0792
lhand -18.1757 11.845
lfingers 7.12502
lthumb 8.10073 41.6697
rfemur -27.3766 1.89433 20.2756
rtibia 42.6119
rfoot 1.4481 -8.2484
rtoes -3.84398
lfemur 6.93078 11.7849 -21.6559
ltibia 14.3164
lfoot 9.14054 -3.41587
ltoes -33.0376
597
root 1.71699 17.9551 -4.99472 -11.6377 87.185 -11.126
lowerback 5.81179 -1.25711 -0.33191
upperback 0.554854 -1.71475 -1.2324
thorax -2.71394 -0.849327 -0.944104
lowerneck -6.13621 1.19674 1.76892
upperneck 12.416 1.33706 1.51391
head 4.73423 0.872734 0.259071
rclavicle 2.41026e-015 1.23246e-014
rhumerus -37.7132 -2.54563 -88.5174
rradius 31.4542
rwrist -1.91646
rhand -21.5015 -34.4657
rfingers 7.12502
rthumb 4.89011 -64.3892
lclavicle 2.41026e-015 1.23246e-014
lhumerus -36.4521 20.966 71.6186
lradius 13.2254
lwrist 2.74182
lhand -18.1647 11.8701
lfingers 7.12502
lthumb 8.11138 41.6944
rfemur -27.2172 1.93185 20.2532
rtibia 44.1948
rfoot 1.46329 -8.05379
rtoes -4.38129
lfemur 6.06185 11.8233 -21.7441
ltibia 15.2698
lfoot 8.8488 -3.27835
ltoes -33.0265
598
root 1.61882 17.9529 -4.99919 -11.9898 87.2134 -11.4432
lowerback 5.76388 -1.26661 -0.290509
upperback 0.555299 -1.72453 -1.23483
thorax -2.68811 -0.854784 -0.970105
lowerneck -6.11588 1.19974 1.76554
upperneck 12.4467 1.34666 1.48008
head 4.74042 0.875813 0.249794
rclavicle -2.29099e-014 -3.57812e-015
rhumerus -37.7657 -2.54082 -88.5046
rradius 31.4479
rwrist -1.93124
rhand -21.5178 -34.5437
rfingers 7.12502
rthumb 4.87434 -64.4676
lclavicle -2.29099e-014 -3.57812e-015
lhumerus -36.7059 21.3483 71.2158
lradius 13.0168
lwrist 2.34574
lhand -18.131 11.8803
lfingers 7.12502
lthumb 8.14388 41.7034
rfemur -26.9922 1.96554 20.2319
rtibia 45.7663
rfoot 1.58302 -7.78127
rtoes -4.97742
lfemur 5.24063 11.8718 -21.8043
ltibia 16.175
lfoot 8.57657 -3.1933
ltoes -32.9703
599
root 1.52211 17.9501 -5.00344 -12.7505 87.2667 -12.1556
lowerback 5.71689 -1.28223 -0.230249
upperback 0.560354 -1.74116 -1.23442
thorax -2.65866 -0.863832 -1.00325
lowerneck -6.09868 1.19933 1.76738
upperneck 12.4825 1.3512 1.44489
head 4.74876 0.876671 0.239002
rclavicle -1.55797e-014 -8.74653e-015
rhumerus -37.8117 -2.55017 -88.4781
rradius 31.4372
rwrist -1.93193
rhand -21.5291 -34.6234
rfingers 7.12502
rthumb 4.86347 -64.5476
lclavicle -1.55797e-014 -8.74653e-015
lhumerus -36.9563 21.7809 70.7783
lradius 12.7997
lwrist 1.88331
lhand -18.0745 11.8629
lfingers 7.12502
lthumb 8.19848 41.6838
rfemur -26.6985 1.99021 20.2133
rtibia 47.3121
rfoot 1.81975 -7.42242
rtoes -5.6182
lfemur 4.46765 11.922 -21.8362
ltibia 17.0312
lfoot 8.31789 -3.16472
ltoes -32.8989
600
root 1.42635 17.9471 -5.00714 -13.9494 87.3518 -13.3006
lowerback 5.67249 -1.30597 -0.159221
upperback 0.564711 -1.76797 -1.22896
thorax -2.63175 -0.878047 -1.03639
lowerneck -6.0871 1.19636 1.76674
upperneck 12.5275 1.35175 1.41539
head 4.76083 0.875985 0.230228
rclavicle 6.95746e-015 1.47101e-014
rhumerus -37.8546 -2.57193 -88.4357
rradius 31.4164
rwrist -1.90977
rhand -21.5356 -34.6785
rfingers 7.12502
rthumb 4.85719 -64.6028
lclavicle 6.95746e-015 1.47101e-014
lhumerus -37.2084 22.2639 70.3088
lradius 12.5798
lwrist 1.35332
lhand -18.0087 11.8216
lfingers 7.12502
lthumb 8.26196 41.64
rfemur -26.3367 2.00747 20.1947
rtibia 48.8213
rfoot 2.13571 -6.99702
rtoes -6.06885
lfemur 3.73709 11.9827 -21.8374
ltibia 17.8311
lfoot 8.08185 -3.20699
ltoes -32.7861
601
root 1.33104 17.9435 -5.01014 -15.6279 87.4683 -14.9208
lowerback 5.63339 -1.3374 -0.0812341
upperback 0.568721 -1.80463 -1.21922
thorax -2.6085 -0.897221 -1.06815
lowerneck -6.07653 1.19015 1.76651
upperneck 12.5724 1.34748 1.38928
head 4.77301 0.873167 0.222151
rclavicle 1.08586e-014 7.55382e-015
rhumerus -37.8956 -2.60795 -88.3786
rradius 31.3919
rwrist -1.87012
rhand -21.5327 -34.7047
rfingers 7.12502
rthumb 4.85997 -64.6289
lclavicle 1.08586e-014 7.55382e-015
lhumerus -37.4585 22.7765 69.8219
lradius 12.3643
lwrist 0.77932
lhand -17.9661 11.7805
lfingers 7.12502
lthumb 8.30305 41.5973
rfemur -25.906 2.00794 20.1808
rtibia 50.2836
rfoot 2.51806 -6.53426
rtoes -6.38358
lfemur 3.04203 12.0384 -21.8153
ltibia 18.5804
lfoot 7.86823 -3.30092
ltoes -32.6399
602
root 1.23627 17.9394 -5.01186 -17.91 87.6148 -17.1413
lowerback 5.59632 -1.3761 -0.00536625
upperback 0.573767 -1.85104 -1.20369
thorax -2.58533 -0.921183 -1.092
lowerneck -6.07289 1.18114 1.76561
upperneck 12.6194 1.33864 1.36845
head 4.78693 0.868432 0.215604
rclavicle 8.84592e-015 3.97569e-016
rhumerus -37.9347 -2.65371 -88.3104
rradius 31.3652
rwrist -1.81885
rhand -21.5306 -34.7063
rfingers 7.12502
rthumb 4.86204 -64.6305
lclavicle 8.84592e-015 3.97569e-016
lhumerus -37.7046 23.292 69.3375
lradius 12.1652
lwrist 0.198732
lhand -17.957 11.7348
lfingers 7.12502
lthumb 8.31179 41.5513
rfemur -25.4041 1.99304 20.1784
rtibia 51.6879
rfoot 2.94343 -6.10139
rtoes -6.53023
lfemur 2.3802 12.0947 -21.7685
ltibia 19.2793
lfoot 7.67411 -3.44852
ltoes -32.4554
